<svg width="56" height="56" viewBox="0 0 56 56" fill="none" xmlns="http://www.w3.org/2000/svg">
<g id="gym-equipment 1" clip-path="url(#clip0_1940_611)">
<g id="Layer_x0020_1">
<g id="_442292624">
<path id="Vector" fill-rule="evenodd" clip-rule="evenodd" d="M10.0059 17.3599L11.5806 3.08927C11.7774 1.67861 12.7944 0.661621 14.041 0.661621H28.1148C29.3615 0.661621 30.3456 1.67861 30.5753 3.08927L32.15 17.2943C28.9022 15.4572 25.1295 14.4402 21.0943 14.4402C17.0592 14.4402 13.2865 15.49 10.0059 17.3599ZM28.3117 12.8655C28.246 12.8655 28.1804 12.8655 28.1148 12.7999C23.5876 11.3236 18.6339 11.3236 14.1066 12.7999C13.8442 12.8655 13.6145 12.7999 13.4177 12.6687C13.1881 12.5046 13.1224 12.2422 13.1224 11.9469L14.2707 3.84381C14.3363 3.48295 14.5987 3.18769 15.0252 3.18769H27.2619C27.5899 3.18769 27.9508 3.48295 28.0164 3.84381L29.1646 11.9469C29.2302 12.2422 29.099 12.439 28.8694 12.6687C28.6725 12.7999 28.5085 12.8655 28.3117 12.8655Z" fill="white"/>
<path id="Vector_2" fill-rule="evenodd" clip-rule="evenodd" d="M20.5038 55.3167C9.1529 54.9886 0 45.6717 0 34.2223C0 22.5762 9.44815 13.0952 21.0943 13.0952C32.7733 13.0952 42.2214 22.5762 42.2214 34.2223C42.2214 34.7472 42.1886 35.3049 42.1558 35.8298C41.6637 36.6172 41.4013 37.5358 41.4013 38.5199V40.1602C41.3029 40.4227 41.2373 40.6851 41.1388 40.9476H29.1974V38.5199C29.1974 35.7642 26.901 33.4678 24.1453 33.4678C21.9801 33.4678 20.0773 34.8457 19.3884 36.814C17.7481 37.4373 16.5343 38.848 16.0094 40.5539C14.2378 41.1444 13.024 42.8831 13.024 44.8843V45.3108C13.024 47.2792 14.2706 49.0179 16.0422 49.6412C16.5671 51.2487 17.7481 52.5938 19.29 53.2499C19.5524 54.0372 19.9461 54.7261 20.5038 55.3167ZM5.01933 34.9769C4.59285 34.9769 4.23199 34.6488 4.23199 34.2223C4.23199 28.9078 6.62683 24.0524 10.8588 20.8046C11.2197 20.5094 11.7118 20.575 11.9414 20.9359C12.2039 21.2967 12.1383 21.7888 11.7774 21.9857C7.97188 24.9054 5.77387 29.3342 5.77387 34.2223C5.77387 34.6488 5.44581 34.9769 5.01933 34.9769ZM17.0264 19.394C16.6655 19.394 16.3702 19.1643 16.239 18.8363C16.1078 18.4098 16.3702 17.9833 16.7967 17.9177C18.2074 17.5568 19.618 17.3272 21.0287 17.3272C21.4552 17.3272 21.816 17.6881 21.816 18.1145C21.816 18.541 21.4552 18.9019 21.0287 18.9019C19.6837 18.9019 18.437 19.0331 17.1576 19.394C17.1576 19.394 17.092 19.394 17.0264 19.394Z" fill="white"/>
<path id="Vector_3" fill-rule="evenodd" clip-rule="evenodd" d="M43.6321 47.8367H26.9666C26.5401 47.8367 26.1793 47.4758 26.1793 47.0493V43.2438C26.1793 42.8173 26.5401 42.4893 26.9666 42.4893H43.6321C44.0586 42.4893 44.4194 42.8173 44.4194 43.2438V47.0493C44.4194 47.4758 44.0586 47.8367 43.6321 47.8367Z" fill="white"/>
<path id="Vector_4" fill-rule="evenodd" clip-rule="evenodd" d="M24.1453 55.3163C22.1769 55.3163 20.6022 53.7088 20.6022 51.8061V38.5196C20.6022 36.5513 22.2425 34.9766 24.1453 34.9766C26.048 34.9766 27.6883 36.6169 27.6883 38.5196V51.8061C27.754 53.7745 26.1137 55.3163 24.1453 55.3163Z" fill="white"/>
<path id="Vector_5" fill-rule="evenodd" clip-rule="evenodd" d="M19.0932 51.3799C18.0106 50.5926 17.2888 49.2804 17.2888 47.8369V42.2599C17.2888 40.7836 18.0106 39.4713 19.0932 38.7168V51.3799Z" fill="white"/>
<path id="Vector_6" fill-rule="evenodd" clip-rule="evenodd" d="M15.7797 47.7713C15.0252 47.2136 14.5331 46.295 14.5331 45.3109V44.8844C14.5331 43.8346 15.0252 42.916 15.7797 42.3911V47.7713Z" fill="white"/>
<path id="Vector_7" fill-rule="evenodd" clip-rule="evenodd" d="M46.3878 55.3163C48.3562 55.3163 49.9309 53.7088 49.9309 51.8061V38.5196C49.9309 36.5513 48.2906 34.9766 46.3878 34.9766C44.4851 34.9766 42.8448 36.6169 42.8448 38.5196V51.8061C42.7792 53.7745 44.4195 55.3163 46.3878 55.3163Z" fill="white"/>
<path id="Vector_8" fill-rule="evenodd" clip-rule="evenodd" d="M51.44 51.3799C52.5226 50.5926 53.2443 49.2804 53.2443 47.8369V42.2599C53.2443 40.7836 52.5226 39.4713 51.44 38.7168V51.3799Z" fill="white"/>
<path id="Vector_9" fill-rule="evenodd" clip-rule="evenodd" d="M54.7534 47.7713C55.5079 47.2136 56 46.295 56 45.3109V44.8844C56 43.8346 55.5079 42.916 54.7534 42.3911V47.7713Z" fill="white"/>
</g>
</g>
</g>
<defs>
<clipPath id="clip0_1940_611">
<rect width="56" height="56" fill="white" transform="translate(0 0.00537109)"/>
</clipPath>
</defs>
</svg>
